<svg width="512" height="512" viewBox="0 0 512 512" fill="none" xmlns="http://www.w3.org/2000/svg">
    <defs>
        <linearGradient id="logo-gradient" x1="0%" y1="0%" x2="100%" y2="100%">
            <stop offset="0%" style="stop-color:hsl(340, 82%, 58%);stop-opacity:1" />
            <stop offset="100%" style="stop-color:hsl(244, 82%, 58%);stop-opacity:1" />
        </linearGradient>
    </defs>
    <path d="M471.37,83.63C433.11,45.37,381.1,25,325.2,25c-55.9,0-107.83,20.37-146.09,58.63L160,102.77l-19.11-19.14C102.17,45.37,50.24,25, -5.66,25S-156.49,45.37,-194.75,83.63C-271.27,160.15,-271.27,289, -194.75,365.52l19.11,19.11,194.75,194.75,194.75-194.75,19.11-19.11C547.89,289,547.89,160.15,471.37,83.63Z" transform="translate(68.33 -25)" fill="url(#logo-gradient)"/>
    <path d="M325.2,75c-35,0-68.3,13.6-92.8,38.1l-13.9,13.9-13.9-13.9c-24.5-24.5-57.8-38.1-92.8-38.1-72.1,0-130.5,58.4-130.5,130.5,0,32.7,12.1,63.1,33.5,86.8l170.2,170.2,170.2-170.2c21.4-23.7,33.5-54.1,33.5-86.8,0-72.1-58.4-130.5-130.5-130.5Z" transform="translate(68.33 -25)" fill="white" fill-opacity="0.2"/>
</svg>
