<svg width="512" height="512" viewBox="0 0 512 512" fill="none" xmlns="http://www.w3.org/2000/svg">
<defs>
    <linearGradient id="grad1" x1="0%" y1="0%" x2="100%" y2="100%">
      <stop offset="0%" style="stop-color:hsl(var(--primary));stop-opacity:1" />
      <stop offset="100%" style="stop-color:hsl(var(--primary) / 0.5);stop-opacity:1" />
    </linearGradient>
</defs>
<path d="M256 472C256 472 128 384 128 256C128 128 256 40 256 40C256 40 384 128 384 256C384 384 256 472 256 472Z" fill="url(#grad1)"/>
<path d="M256 472C256 472 128 384 128 256C128 128 256 40 256 40C256 40 384 128 384 256C384 384 256 472 256 472Z" stroke="hsl(var(--primary-foreground))" stroke-width="16"/>
<path d="M256 320C282.5 320 304 298.5 304 272C304 245.5 282.5 224 256 224C229.5 224 208 245.5 208 272C208 298.5 229.5 320 256 320Z" fill="hsl(var(--primary-foreground))" />
</svg>
